<svg
    overflow="visible"
    width="18"
    height="18"
    viewBox="0 0 23 26"
    xmlns="http://www.w3.org/2000/svg"
    xmlns:xlink="http://www.w3.org/1999/xlink"
>
    <defs>
    <path
        d="M.458 1.182A.802.802 0 0 0 0 1.901v14.134c0 .03.006.058.017.084v9.104c0 .429.358.777.801.777.442 0 .8-.348.8-.777v-9.469c1.753-.519 3.73-.703 3.73-.703 1.952-.02 3.831.539 5.876 1.146 2.317.69 4.866 1.448 7.887 1.448 1.015 0 2.081-.086 3.211-.288a.823.823 0 0 0 .629-.518.784.784 0 0 0-.145-.789l-5.282-6.108 5.29-6.303a.781.781 0 0 0 .07-.917.837.837 0 0 0-.862-.382c-4.098.733-7.258-.207-10.313-1.115C9.616.602 7.59 0 5.437 0 3.87 0 2.236.32.458 1.182z"
        id="j2mcz825ra"
    />
    </defs>
    <g fill="none" fill-rule="evenodd">
    <mask id="npuw7wad9b" fill="#fff">
        <use xlink:href="#j2mcz825ra" />
    </mask>
    <path fill="#E36F1E" mask="url(#npuw7wad9b)" d="M-1 27h25V-1H-1z" />
    </g>
</svg>